<svg xmlns="http://www.w3.org/2000/svg" viewBox="0 0 85.61 58.14"><defs><style>.cls-1,.cls-2{fill:none;stroke:#000;stroke-linecap:round;}.cls-1{stroke-linejoin:round;stroke-width:5.55px;}.cls-2{stroke-miterlimit:10;stroke-width:4px;}</style></defs><g id="Layer_2" data-name="Layer 2"><g id="Layer_1-2" data-name="Layer 1"><path class="cls-1" d="M82.83,55.14a27.15,27.15,0,0,1-5.72,0c-12-1.33-23.56-11.26-22.84-19.78a10.89,10.89,0,0,1,7.61-9.89c6.86-2.54,14.41-.26,15.23,0-4.76-4.79-10.5-10.13-18.58-10.13-27.88,0-27.88,40-55.75,40"/><line class="cls-2" x1="16.12" y1="35.35" x2="16.12" y2="2"/><line class="cls-2" x1="22.79" y1="8.67" x2="16.12" y2="2"/><line class="cls-2" x1="9.45" y1="8.67" x2="16.12" y2="2"/><line class="cls-2" x1="9.45" y1="28.68" x2="16.12" y2="35.35"/><line class="cls-2" x1="22.79" y1="28.68" x2="16.12" y2="35.35"/></g></g></svg>