<svg xmlns="http://www.w3.org/2000/svg" xmlns:xlink="http://www.w3.org/1999/xlink" viewBox="0 0 120.4 99.47"><defs><style>.cls-1,.cls-3{fill:none;stroke-linecap:round;stroke-miterlimit:10;}.cls-1{stroke:#fff;stroke-width:18px;}.cls-2{mask:url(#mask);}.cls-3{stroke:#000;stroke-width:7px;}.cls-4{filter:url(#luminosity-invert-noclip);}</style><filter id="luminosity-invert-noclip" x="-5.5" y="41.2" width="125.9" height="58.28" filterUnits="userSpaceOnUse" color-interpolation-filters="sRGB"><feColorMatrix values="-1 0 0 0 1 0 -1 0 0 1 0 0 -1 0 1 0 0 0 1 0" result="invert"/><feFlood flood-color="#fff" result="bg"/><feBlend in="invert" in2="bg"/></filter><mask id="mask" x="-5.5" y="41.2" width="125.9" height="58.28" maskUnits="userSpaceOnUse"><g class="cls-4"><line class="cls-1" x1="3.5" y1="50.2" x2="43.52" y2="50.2"/><path class="cls-1" d="M26.84,66.87A16.68,16.68,0,1,0,43.52,50.2"/><rect x="56.87" y="63.54" width="26.68" height="20.01"/></g></mask></defs><g id="Layer_2" data-name="Layer 2"><g id="Layer_1-2" data-name="Layer 1"><g class="cls-2"><line class="cls-3" x1="3.5" y1="50.2" x2="94.02" y2="50.2"/><path class="cls-3" d="M71.14,73.08A22.88,22.88,0,1,0,94,50.2"/></g><line class="cls-3" x1="3.5" y1="36.85" x2="73.55" y2="36.85"/><path class="cls-3" d="M56.88,20.18A16.67,16.67,0,1,1,73.55,36.85"/><line class="cls-3" x1="3.5" y1="50.2" x2="43.52" y2="50.2"/><path class="cls-3" d="M26.84,66.87A16.68,16.68,0,1,0,43.52,50.2"/></g></g></svg>